<?xml version="1.0" encoding="UTF-8"?>
<svg id="Capa_1" xmlns="http://www.w3.org/2000/svg" version="1.1" viewBox="0 0 951.6 951.6">
  <!-- Generator: Adobe Illustrator 29.0.0, SVG Export Plug-In . SVG Version: 2.1.0 Build 186)  -->
  <defs>
    <style>
      .st0 {
        fill: #fff;
      }
    </style>
  </defs>
  <g>
    <path class="st0" d="M236.9,607.1h-14v44h14c10.6,0,22.2-7.3,22.2-22s-11.6-22-22.2-22ZM235.8,647.1h-8.5v-36h8.5c12.7,0,18.8,8.9,18.8,18s-6.1,18-18.8,18Z"/>
    <rect class="st0" x="270.3" y="607.1" width="4.3" height="44"/>
    <path class="st0" d="M299.9,626.7c-4.7-1.6-9.2-3-9.2-8.6s4.8-8.3,9-8.3,6.9,1.7,8.7,4.4l3.4-2.9c-2-2.9-6.3-5.3-11.9-5.3s-13.5,3.6-13.5,12.1,5.7,10.5,11.3,12.3c5.4,1.7,10.3,3.3,10.3,9.4s-5,8.5-9.4,8.5-7.8-2.4-9.7-5.5l-3.7,2.9c3,4.3,8.2,6.5,13.3,6.5s13.8-3.9,13.8-12.7-6.6-10.8-12.5-12.9Z"/>
    <polygon class="st0" points="317.9 611.1 332 611.1 332 651.1 336.3 651.1 336.3 611.1 350.4 611.1 350.4 607.1 317.9 607.1 317.9 611.1"/>
    <path class="st0" d="M385.8,618.9c0-8.6-6.1-11.7-14.4-11.7h-12.4v44h4.3v-20.6h7.2l11.7,20.6h5.3l-12.3-20.9c6.1-.7,10.8-4.8,10.8-11.3ZM363.3,626.7v-15.7h7.6c6.4,0,10.6,2.1,10.6,7.9s-3.9,7.8-10.8,7.8h-7.5Z"/>
    <rect class="st0" x="396.9" y="607.1" width="4.3" height="44"/>
    <path class="st0" d="M433.3,627.9h0c4.5-1.2,7.5-5,7.5-9.6,0-8.8-7.2-11.2-13.6-11.2h-12.6v44h12.5c9.7,0,15.7-4.8,15.7-12.2s-4.1-10.4-9.5-11ZM418.9,611h7.5c5.5,0,10.1,2.1,10.1,7.7s-4.8,7.7-8.9,7.7h-8.6v-15.4ZM426.9,647.2h-8v-17.2h8.8c6.9,0,10.9,2.9,10.9,8.6s-5.4,8.6-11.6,8.6Z"/>
    <path class="st0" d="M481.8,634.2c0,7.1-2.9,14-11.5,14s-11.5-7-11.5-14v-27.1h-4.3v27.6c0,7.3,3.2,17.5,15.8,17.5s15.8-10.2,15.8-17.5v-27.6h-4.3v27.1Z"/>
    <path class="st0" d="M519.1,648.3c-10.9,0-17.5-8.9-17.5-19.2s6.6-19.2,17.5-19.2,9.6,2.9,11.4,5.8l3.6-2.7c-2.9-4.3-8.8-7-15-7-12.6,0-22,9.8-22,23.1s9.2,23.1,22,23.1,13-3.8,15.8-8.2l-3.3-2.2c-2.9,4.5-7.6,6.5-12.4,6.5Z"/>
    <rect class="st0" x="544.4" y="607.1" width="4.3" height="44"/>
    <path class="st0" d="M581.9,606c-12.6,0-22,9.8-22,23.1s9.4,23.1,22,23.1,22-9.8,22-23.1-9.4-23.1-22-23.1ZM581.9,648.2c-10.9,0-17.5-8.9-17.5-19.1s6.6-19.2,17.5-19.2,17.5,8.9,17.5,19.2-6.6,19.1-17.5,19.1Z"/>
    <polygon class="st0" points="645.1 644.6 645 644.6 620.4 607.1 615 607.1 615 651.1 619.3 651.1 619.3 613.3 619.5 613.3 644 651.1 649.4 651.1 649.4 607.1 645.1 607.1 645.1 644.6"/>
    <polygon class="st0" points="667.1 630.2 687.6 630.2 687.6 626.2 667.1 626.2 667.1 611.1 689 611.1 689 607.1 662.8 607.1 662.8 651.1 689.7 651.1 689.7 647.1 667.1 647.1 667.1 630.2"/>
    <path class="st0" d="M712.3,626.7c-4.7-1.6-9.2-3-9.2-8.6s4.8-8.3,9-8.3,6.9,1.7,8.7,4.4l3.4-2.9c-2-2.9-6.3-5.3-11.9-5.3s-13.5,3.6-13.5,12.1,5.7,10.5,11.3,12.3c5.4,1.7,10.3,3.3,10.3,9.4s-5,8.5-9.4,8.5-7.8-2.4-9.7-5.5l-3.7,2.9c3,4.3,8.2,6.5,13.3,6.5s13.8-3.9,13.8-12.7-6.6-10.8-12.5-12.9Z"/>
  </g>
  <g>
    <rect class="st0" x="156.3" y="784.1" width="5.9" height="25.1"/>
    <polygon class="st0" points="185.7 800.5 185.6 800.5 175.9 784.1 169.3 784.1 169.3 809.2 174.9 809.2 174.8 792.8 174.9 792.8 184.6 809.2 191.2 809.2 191.2 784.1 185.6 784.1 185.7 800.5"/>
    <path class="st0" d="M206.7,788.4c1.5,0,3.3.9,4.3,2.2l3.7-4.1c-2.1-2-5.2-3.1-7.9-3.1-4.5,0-9.3,2.3-9.3,7.9s3.1,6.2,6.2,7.2c3.2,1.1,5,1.7,5,3.6s-1.6,2.7-3.3,2.7-4.1-1.1-5.2-2.7l-3.8,4c2.1,2.3,5.6,3.6,9,3.6s9.2-2.6,9.2-8.4-4.2-6.5-7.5-7.6c-2.3-.7-3.7-1.3-3.7-2.9s1.9-2.5,3.4-2.5Z"/>
    <path class="st0" d="M235.2,799.2c0,2.7-1.2,5.2-4.5,5.2s-4.5-2.5-4.5-5.2v-15.2h-5.8v15.6c0,6,4,10.1,10.3,10.1s10.4-4.1,10.4-10.1v-15.6h-5.8v15.2Z"/>
    <polygon class="st0" points="261.7 800.2 261.5 800.2 256.1 784.1 247.8 784.1 247.8 809.2 253.3 809.2 253.1 791.4 253.2 791.4 259.3 809.2 263.4 809.2 269.7 791.4 269.8 791.4 269.7 809.2 275.3 809.2 275.3 784.1 266.9 784.1 261.7 800.2"/>
    <path class="st0" d="M294.4,783.4c-7.5,0-13.1,5.1-13.1,13.1s5.6,13.3,13.1,13.3,13.2-5.4,13.2-13.3-5.6-13.1-13.2-13.1ZM294.4,804.3c-4.1,0-6.9-3.3-6.9-7.8s2.8-7.7,6.9-7.7,6.9,3.3,6.9,7.7-2.9,7.8-6.9,7.8Z"/>
    <path class="st0" d="M322,788.4c1.5,0,3.3.9,4.3,2.2l3.7-4.1c-2.1-2-5.2-3.1-7.9-3.1-4.5,0-9.3,2.3-9.3,7.9s3.1,6.2,6.2,7.2c3.2,1.1,5,1.7,5,3.6s-1.6,2.7-3.3,2.7-4.1-1.1-5.2-2.7l-3.8,4c2.1,2.3,5.6,3.6,9,3.6s9.2-2.6,9.2-8.4-4.2-6.5-7.5-7.6c-2.3-.7-3.7-1.3-3.7-2.9s1.9-2.5,3.4-2.5Z"/>
    <path class="st0" d="M355.2,784.1h-8.9v25.1h5.8v-9.5h2.9c5,0,9.6-2.1,9.6-7.9s-4.2-7.7-9.4-7.7ZM352.2,789h2.6c2.1,0,4.1.5,4.1,2.9s-2,3.1-4.2,3.1h-2.4"/>
    <path class="st0" d="M375.4,784.1l-10.1,25.1h6.3l1.8-4.9h9.3l1.9,4.9h6.5l-10-25.1h-5.7ZM378.1,790.8l3,8.6h-6.1"/>
    <path class="st0" d="M413.6,791.7c0-5.8-4.6-7.6-9.2-7.6h-9.2v25.1h5.7v-10h2l5.2,10h6.8l-6.3-10.7c3.1-1,5-3.4,5-6.8ZM403.6,794.8h-2.8v-5.9h3.1c1.7,0,3.9.5,3.9,2.8s-2.4,3-4.2,3Z"/>
    <path class="st0" d="M427,784.1l-10.1,25.1h6.3l1.8-4.9h9.3l1.9,4.9h6.5l-10-25.1h-5.7ZM426.7,799.4l3.1-8.6,3,8.6h-6.1Z"/>
    <path class="st0" d="M465.7,784.1h-8.9v25.1h5.8v-9.5h2.9c5,0,9.6-2.1,9.6-7.9s-4.2-7.7-9.4-7.7ZM465.1,794.9h-2.4v-5.9h2.6c2.1,0,4.1.5,4.1,2.9s-2,3.1-4.2,3.1Z"/>
    <polygon class="st0" points="486.4 798.8 496.4 798.8 496.4 793.9 486.4 793.9 486.4 789.2 497 789.2 497 784.1 480.7 784.1 480.7 809.2 497.6 809.2 497.6 804 486.4 804 486.4 798.8"/>
    <path class="st0" d="M522,791.7c0-5.8-4.6-7.6-9.2-7.6h-9.2v25.1h5.7v-10h2l5.2,10h6.8l-6.3-10.7c3.1-1,5-3.4,5-6.8ZM512,794.8h-2.8v-5.9h3.1c1.7,0,3.9.5,3.9,2.8s-2.3,3-4.2,3Z"/>
    <polygon class="st0" points="528.2 809.2 534 809.2 534 799.4 543.3 799.4 543.3 794.4 534 794.4 534 789.2 544.1 789.2 544.1 784.1 528.2 784.1 528.2 809.2"/>
    <path class="st0" d="M564.6,799.2c0,2.7-1.2,5.2-4.5,5.2s-4.5-2.5-4.5-5.2v-15.2h-5.8v15.6c0,6,4,10.1,10.3,10.1s10.4-4.1,10.4-10.1v-15.6h-5.8v15.2Z"/>
    <polygon class="st0" points="591.1 800.2 591 800.2 585.5 784.1 577.2 784.1 577.2 809.2 582.7 809.2 582.6 791.4 582.7 791.4 588.8 809.2 592.8 809.2 599.1 791.4 599.2 791.4 599.1 809.2 604.8 809.2 604.8 784.1 596.3 784.1 591.1 800.2"/>
    <polygon class="st0" points="617.5 798.8 627.5 798.8 627.5 793.9 617.5 793.9 617.5 789.2 628.1 789.2 628.1 784.1 611.8 784.1 611.8 809.2 628.7 809.2 628.7 804 617.5 804 617.5 798.8"/>
    <path class="st0" d="M653.1,791.7c0-5.8-4.6-7.6-9.2-7.6h-9.2v25.1h5.7v-10h2l5.2,10h6.8l-6.3-10.7c3.1-1,5-3.4,5-6.8ZM643.1,794.8h-2.8v-5.9h3.1c1.7,0,3.9.5,3.9,2.8s-2.3,3-4.2,3Z"/>
    <rect class="st0" x="659.3" y="784.1" width="5.9" height="25.1"/>
    <path class="st0" d="M679.4,784.1l-10.1,25.1h6.3l1.8-4.9h9.3l1.9,4.9h6.5l-10-25.1h-5.7ZM679.1,799.4l3.1-8.6,3,8.6h-6.1Z"/>
    <polygon class="st0" points="709.2 809.2 715 809.2 715 799.4 724.3 799.4 724.3 794.4 715 794.4 715 789.2 725.1 789.2 725.1 784.1 709.2 784.1 709.2 809.2"/>
    <rect class="st0" x="730.9" y="784.1" width="5.9" height="25.1"/>
    <polygon class="st0" points="760.3 800.5 760.2 800.5 750.5 784.1 743.9 784.1 743.9 809.2 749.5 809.2 749.4 792.8 749.5 792.8 759.2 809.2 765.8 809.2 765.8 784.1 760.2 784.1 760.3 800.5"/>
    <path class="st0" d="M780.1,784.1l-10.1,25.1h6.3l1.8-4.9h9.3l1.9,4.9h6.5l-10-25.1h-5.7ZM779.7,799.4l3.1-8.6,3,8.6h-6.1Z"/>
    <path class="st0" d="M807,792.6c-3.2,0-5.8,2.7-5.8,6s2.6,6,5.8,6,5.8-2.7,5.8-6-2.6-6-5.8-6Z"/>
    <path class="st0" d="M143.1,790.9c-3.2,0-5.8,2.7-5.8,6s2.6,6,5.8,6,5.8-2.7,5.8-6-2.6-6-5.8-6Z"/>
  </g>
  <g>
    <polygon class="st0" points="216.3 669.1 137.4 669.1 137.4 696 148.2 696 150.7 679.8 152.9 678.2 165.3 678.2 165.3 748 162.9 750.5 154.3 751 154.3 758.8 199.2 758.8 199.2 751 190.8 750.5 188.3 748 188.3 678.2 200.5 678.2 202.8 679.8 205.5 696 216.3 696 216.3 669.1"/>
    <polygon class="st0" points="229.1 676.9 238.4 677.4 240.4 679.4 240.4 748 238.4 750.5 229.1 751 229.1 758.8 274.9 758.8 274.9 751 265.4 750.5 263.4 748 263.4 679.4 265.4 677.4 274.9 676.9 274.9 669.1 229.1 669.1 229.1 676.9"/>
    <polygon class="st0" points="372.9 679 372.9 748 371.7 750.5 363.8 751 363.8 758.8 405.3 758.8 405.3 751 395.7 750.5 394.2 748 394.2 679.2 395.7 677.4 405.3 676.4 405.3 669.1 363.8 669.1 363.8 672.9 346.2 729 328.4 673 328.4 669.1 287 669.1 287 676.4 296 677.4 297.5 679 297.5 748 296 750.5 287 751 287 758.8 319.1 758.8 319.1 751 310.6 750.5 309.1 748 309.1 679 309.3 679 334.5 758.8 347.5 758.8 372.6 679 372.9 679"/>
    <path class="st0" d="M433.3,748.5l6.5-19.8h27.3l6.8,19.9-1,1.8-8.7.7v7.8h41.6v-7.8l-7.8-1-29.8-81.5h-18.5l-29.4,82-8.3.5v7.8h31v-7.8l-8.2-.9-1.3-1.6ZM453,690.2l10.3,29.6h-20.5l10.2-29.6Z"/>
    <path class="st0" d="M589.4,759.6c2.3,0,5,0,7.9-.2,2.9-.1,6.1-.3,9.6-.6v-7.9h-1.5c-4.3,0-7.6-.7-9.6-2-2.1-1.3-3.9-4-5.4-8-.3-1-.8-2.3-1.5-4.1-2.9-8.1-6-13.7-9.3-16.8-1.5-1.4-3.2-2.6-5.3-3.6-2.1-1-4.5-1.8-7.3-2.3,8-1.1,14.1-3.6,18.1-7.4,4-3.8,6.1-9,6.1-15.4s-2.6-12.7-7.8-16.5c-5.2-3.8-12.7-5.7-22.6-5.7h-47.1v7.8l8.2.5,2.1,2v68.6l-2.1,2.5-8.2.5v7.8h43.1v-7.8l-8.5-.5-2-2.5v-28.2h1.3c4.2,0,7.5,1,9.9,3,2.4,2,4.4,5.4,6,10.2.5,1.4,1.1,3.5,1.8,6.3,1.7,6.7,3.6,11.1,5.6,13.4,2,2.3,4.6,4,7.7,5.2,3.1,1.2,6.8,1.8,10.9,1.8ZM563,706.7c-3.1,2.9-7.7,4.3-13.9,4.3s-.9,0-1.5,0c-.6,0-1.1,0-1.4,0v-32.6h5.9c4.8,0,8.5,1.4,11.3,4.2,2.8,2.8,4.2,6.7,4.2,11.5s-1.5,9.8-4.6,12.7Z"/>
    <path class="st0" d="M612.9,758.8h31v-7.8l-8.2-.9-1.3-1.6,6.5-19.8h27.3l6.8,19.9-1,1.8-8.7.7v7.8h41.6v-7.8l-7.8-1-29.8-81.5h-18.5l-29.4,82-8.3.5v7.8ZM654,690.2l10.3,29.6h-20.5l10.2-29.6Z"/>
    <polygon class="st0" points="777.8 676.2 786.2 677.4 788.5 680 788.5 732.2 751.7 672.7 751.7 669.1 715.4 669.1 715.4 676.9 724 677.4 725.7 679.4 725.7 748 723.3 750.5 715.4 751.3 715.4 758.8 747.8 758.8 747.8 751.3 739.2 750.5 737.4 748 737.4 690.7 779.9 758.8 800.3 758.8 800.3 680 802.8 677.4 810.3 676.2 810.3 669.1 777.8 669.1 777.8 676.2"/>
  </g>
  <path class="st0" d="M872.1,442.9c-16.5,11-19.2,23-19.6,26.3-2.6,1.5-5.1,2.8-7.3,3.9,3.5-5.6,6.8-11.2,9.9-17,5.1-9.9,9.4-20,13.1-30.4.4-1.1.8-2.3,1.2-3.4,2.9-8.5,7-16.7,12.6-23.9.4-.5.7-1,1.1-1.5h0c46.3-24.2,25.1-73.5,25.1-73.5.7,10.9-10.3,19.2-21.6,39-9.6,16.9-6.4,28.7-5.2,31.9-2.4,3.5-4.6,6.5-6.5,9.1.8-3.2,1.5-6.4,2.1-9.5,2.2-10.7,3.4-21.7,4-32.6l.2-4.1c0-1.4.1-2.7.1-4.1v-8.2c0-2.7-.3-5.5-.4-8.2,0-1.4-.1-2.7-.2-4.1l-.4-4.1c-.3-2.7-.1-5.4.5-8.1l3.3-15.6h0c33.8-38.7-5-77.1-5-77.1,4.8,9.9-2.2,21.5-5.1,43.9-2.5,19.1,5.1,29,7.4,31.5-1,4.5-1.9,8.5-2.8,11.7l-.4-2.5c-.3-2.7-1-5.4-1.5-8l-.8-4c-.3-1.3-.5-2.7-.9-4-1.4-5.3-2.6-10.6-4.4-15.8l-1.2-3.9-.6-2-.7-1.9-2.9-7.7c-1.8-4.5-3.7-8.9-5.8-13.3-3.7-7.8-5.9-16.2-6.4-24.8-.1-2-.3-4-.5-5.9h0c18.2-47.2-31.8-71-31.8-71,8,7.8,5.5,20.9,10.6,43,4.4,18.8,15,25.6,18.1,27.3,1,6.4,1.5,11.8,1.8,15.5,0-.1-.2-.3-.2-.4l-2-3.6c-.7-1.2-1.5-2.3-2.2-3.5l-4.4-7-4.8-6.7c-.8-1.1-1.6-2.3-2.4-3.4l-2.6-3.3c-2.6-3.5-5.4-6.8-8.3-10.1h0c-4-4.8-9.5-11.8-14.2-16.9-2.2-2.4-4.2-5-5.6-7.8-20.8-41.8-71.6-30.1-71.6-30.1,11.4.7,18.7,12.1,37.9,25.3,15.2,10.4,27.3,9.8,31.6,9.1.5.2,1.2.4,1.7.5l5.8,5.8c7.6,8,14.9,16.2,21.2,25.1l2.4,3.3c.8,1.1,1.5,2.3,2.3,3.4l4.5,6.8,1.9,3.2c-5.1-4.1-10.1-7.7-15.2-10.7h0c-27.4-43-78.1-20.6-78.1-20.6,11.4-1.2,20.6,9,41.9,18.9,18.1,8.4,30.4,4.8,33.6,3.5,7.3,4.1,13.3,8,16.8,10.4,2.2,1.5,4.1,3.5,5.3,5.8,0,0,0,0,0,0l1.9,3.6c5.3,9.5,9.5,19.5,13.3,29.5l2.6,7.6.7,1.9.6,1.9,1.1,3.9c1.6,5.1,2.7,10.4,3.9,15.6.3,1.3.6,2.6.8,3.9h0c-3.4-4.9-7-9.5-10.7-13.7h0c-13-48.8-68.3-41.5-68.3-41.5,11.2,2.1,16.9,14.3,34.2,29.7,14.7,13.1,27.6,13.1,31.1,12.8,4,4.1,7.2,7.8,9.6,10.7,3.3,4,5.5,8.7,6,13.8,0,0,0,0,0,0l1,8,.2,2v2c.1,0,.4,4,.4,4l.3,4c0,1.3,0,2.7.1,4,0,2.7.1,5.3.1,8l-.2,8c0,1.3,0,2.7-.2,4l-.3,4c-.5,5.8-1.1,11.5-2,17.2-1.2-4.8-2.6-9.4-4.2-13.7h0c6.1-50-48.3-62-48.3-62,9.7,5.8,10.4,19.1,20.9,39.4,8.9,17.3,20.9,21.6,24.2,22.5,1.3,3.1,2.4,6,3.4,8.5,2.3,6.3,2.8,13,1.3,19.5,0,0,0,0,0,0-2.4,10.4-5.3,20.7-9.2,30.6-3.8,10-8.3,19.7-13.5,29.1-1.5,2.7-3.1,5.4-4.8,8.1.9-5.6,1.5-11.1,1.7-16.3h0c24.9-44.4-21.1-74.6-21.1-74.6,6.8,8.8,2.4,21.4,4.3,44,1.6,19.2,11.1,27.4,13.9,29.4,0,.7,0,1.5,0,2.2,0,12.2-4,24.1-11.4,34.1,0,0,0,0-.1.1-6.4,8.7-13.6,16.7-21.2,24.4-1.9,1.9-3.8,3.9-5.8,5.7l-6,5.5c0,0,0,0-.2-.1,1.8-3.1,3.5-6.2,5-9.2h0c41-31.7,10.8-76.5,10.8-76.5,2.7,10.6-6.5,20.6-13.9,42.1-6.3,18.3-.9,29.4.9,32.3-1.2,2.8-2.4,5.3-3.5,7.5-2.7,5.5-6.6,10.4-11.6,14.2,0,0,0,0,0,0-8.6,6.6-17.7,12.7-27.2,18-5.5,3.1-11.2,6-17,8.8,2.4-2.4,4.6-4.7,6.7-7.1h0c39.3-17.3,24.8-58.7,24.8-58.7,0,8.9-9.6,15.1-20,30.7-8.9,13.3-6.9,23.1-6.2,25.8-1.3,1.6-2.5,3.1-3.6,4.5-.5.6-1,1.2-1.5,1.7.4-1.3.8-2.5,1.3-3.8.8-2.3-.4-3.8-1.9-5.2-5.8-5.3-11.7-10.6-17.5-15.9-10.4-9.3-20.7-18.6-31.2-27.8-2.2-1.9-2.4-3.5-1.3-5.6,2.5-1.4,4.3-3.9,4.6-6.9.6-5.1-3.1-9.9-8.2-10.5l-4.7-.6c0-.4.2-.8.4-1.2,2.3-6.3,4.2-12.8,6.1-19.3,2.2-7.5.3-9.8-6.5-12.7-.3-.1-.6-.2-.9-.4,4.7,0,8.6-2.2,10.1-10l3.7-14.1c4-9.7-3.1-14.6-11.1-16.9l-19.1-5.5c-8-2.3-15.8-3.2-17.8,8.6l-3.7,14.1c-1.5,8-.1,11.6,2.9,13.8-2.7-.6-4.7-1.1-5.6-1.2-4.1-.6-6.5,1.8-7.3,5.9,0,.3,0,.5-.1.8l-6.6,25.8c-.4,0-.9,0-1.3,0-6.9,0-12.5,5.4-12.5,12.1s0,1.2.1,1.8c.1,3.6,1.6,4.4,1.3,6-.6.4-3,2.5-3.9,2.8-9.1,3.5-18,7.4-27.1,11-.4.2-.7.3-1,.4v-1.3c-.1-.8-.2-1.8-.2-3.3,0-41.1,0-82.2,0-123.3,0-13.3-7.9-21.9-20.7-22.1-16.2-.3-32.5,0-48.7,0-5.5,0-5.5,0-5.7-5.7-.1-6.1,0-12.2-.2-18.4,0-2.8.9-4.1,3.6-4.4,4.6-.6,5.8-2,5.8-6.7,0-15.3.1-30.6,0-45.9,0-4.8-1.9-6.6-7.1-6.7-7.3-.1-14.6,0-21.8,0s-10.2,0-15.3,0c-5.8,0-8.1,2.3-8.2,8.4,0,10.2,0,20.5,0,30.7,0,4.5,0,9.1.1,13.6.2,5,1.3,6.3,6,7,2.5.4,3.6,1.5,3.6,4.2,0,6.7,0,13.3.2,20,.1,3.6-1.5,4.6-4.7,4.5-15.8-.1-31.7.2-47.5-.2-4.7-.1-8.7.5-12,2.5-1.5.7-2.8,1.7-3.7,3.1-1.4,1.6-2.5,3.5-3.4,6-.1.8-.3,1.7-.4,2.5v10.2s0,0,0,0v77.3c-19.5-15.6-44.1-24.9-70.9-24.9s-4.2,0-6.2.2c.3-1.3.3-2.8.1-4.7l-2.2-9.4c-1.2-9.8-5.5-8.4-11-6.5,2-1.6,2.9-4.3,1.9-9.8l-2.5-10.5c-1.3-8.7-7.1-8.2-13-6.7l-14.2,3.7c-5.9,1.5-11.2,5-8.5,12.3l2.5,10.5c1,5.5,3.5,7.3,6.7,7.6-5.9,1-10.4,1.9-7.5,11.1l2.2,9.4c.3,2,.9,3.4,1.9,4.4-38.3,18.8-64.8,58.5-64.8,104.3s.5,12.5,1.5,18.6c-2.6-1.8-5-4-7-6.4-1.1-1.4-2.4-2.9-3.6-4.5.8-2.6,2.7-12.5-6.2-25.8-10.4-15.6-19.9-21.8-20-30.7,0,0-14.5,41.4,24.8,58.7h0c2,2.4,4.3,4.7,6.7,7.1-5.8-2.7-11.4-5.7-16.9-8.8-9.5-5.3-18.5-11.5-27.2-18,0,0,0,0,0,0-5-3.7-8.9-8.7-11.6-14.2-1.1-2.3-2.3-4.8-3.5-7.5,1.8-2.9,7.2-14,.9-32.3-7.4-21.5-16.7-31.5-13.9-42.1,0,0-30.2,44.8,10.8,76.6h0c1.5,3,3.1,6.1,5,9.2,0,0,0,0-.2.1l-6-5.5c-2-1.8-3.9-3.8-5.8-5.7-7.6-7.7-14.8-15.8-21.2-24.4,0,0,0,0-.1-.1-7.4-9.9-11.3-21.9-11.4-34.1,0-.7,0-1.4,0-2.2,2.8-2,12.3-10.3,13.9-29.4,1.9-22.5-2.6-35.2,4.3-44,0,0-46,30.2-21.1,74.6h0c.2,5.2.7,10.6,1.7,16.3-1.6-2.7-3.2-5.4-4.8-8.1-5.1-9.4-9.6-19.1-13.5-29.1-3.9-10-6.8-20.2-9.2-30.6,0,0,0,0,0,0-1.5-6.5-1-13.2,1.3-19.5.9-2.5,2.1-5.4,3.4-8.5,3.4-.9,15.4-5.3,24.2-22.5,10.4-20.3,11.1-33.7,20.9-39.4,0,0-54.4,12-48.3,62h0c-1.6,4.3-3,8.9-4.2,13.6-.9-5.7-1.5-11.5-2-17.2l-.3-4c-.1-1.3-.2-2.7-.2-4l-.2-8c0-2.7,0-5.3.1-8,0-1.3,0-2.7.1-4l.3-4,.3-4v-2c.1,0,.4-2,.4-2l1-8s0,0,0,0c.5-5.1,2.7-9.8,6-13.8,2.4-2.8,5.7-6.5,9.6-10.7,3.5.3,16.3.3,31.1-12.8,17.3-15.4,23-27.6,34.2-29.7,0,0-55.3-7.3-68.3,41.5h0c-3.7,4.1-7.3,8.7-10.7,13.7h0c.2-1.4.5-2.7.8-4,1.2-5.2,2.3-10.5,3.9-15.6l1.1-3.9.6-1.9.7-1.9,2.6-7.6c3.8-10.1,8-20,13.3-29.5l1.9-3.6s0,0,0,0c1.2-2.3,3.1-4.3,5.3-5.8,3.5-2.4,9.5-6.4,16.8-10.4,3.3,1.3,15.5,4.9,33.6-3.5,21.3-9.9,30.5-20,41.9-18.9,0,0-50.7-22.4-78.1,20.6h0c-5,3.1-10.1,6.6-15.2,10.7l1.9-3.2,4.5-6.8c.8-1.1,1.5-2.3,2.3-3.4l2.4-3.3c6.4-8.9,13.6-17.2,21.2-25.1l5.8-5.8c.5-.2,1.2-.4,1.7-.5,4.4.7,16.4,1.3,31.6-9.1,19.2-13.2,26.5-24.6,37.9-25.3,0,0-50.8-11.8-71.6,30.1-1.4,2.9-3.4,5.5-5.6,7.8-4.8,5-10.2,12-14.2,16.9h0c-2.9,3.3-5.6,6.6-8.3,10.1l-2.6,3.3c-.8,1.1-1.6,2.2-2.4,3.4l-4.8,6.7-4.4,7c-.7,1.2-1.5,2.3-2.2,3.5l-2,3.6c0,.1-.2.3-.2.4.3-3.8.8-9.1,1.8-15.6,3.1-1.6,13.7-8.5,18.1-27.3,5.2-22,2.6-35.2,10.7-43,0,0-50,23.8-31.8,71h0c-.2,1.9-.4,3.9-.5,5.8-.5,8.6-2.8,17-6.4,24.8-2,4.4-3.9,8.8-5.8,13.3l-2.9,7.7-.7,1.9-.6,2-1.2,3.9c-1.8,5.2-3,10.5-4.4,15.8-.4,1.3-.6,2.7-.9,4l-.8,4c-.5,2.7-1.2,5.3-1.5,8l-.4,2.5c-.9-3.2-1.9-7.2-2.8-11.7,2.3-2.5,9.9-12.4,7.4-31.5-2.9-22.4-9.9-34-5.1-43.9,0,0-38.7,38.4-5,77.1h0s3.3,15.6,3.3,15.6c.6,2.7.7,5.4.5,8.1l-.4,4.1c-.1,1.4-.2,2.7-.2,4.1-.1,2.7-.3,5.5-.4,8.2v8.2c0,1.4,0,2.7,0,4.1l.2,4.1c.6,10.9,1.8,21.8,4,32.6.6,3.2,1.3,6.4,2.1,9.5-1.9-2.5-4.1-5.6-6.5-9.1,1.2-3.2,4.4-15-5.2-31.9-11.3-19.8-22.3-28.1-21.6-39,0,0-21.2,49.3,25.1,73.5h0c.4.5.7,1,1.1,1.4,5.5,7.2,9.7,15.4,12.6,23.9.4,1.1.8,2.3,1.2,3.4,3.7,10.4,8.1,20.6,13.1,30.4,3,5.8,6.4,11.5,9.9,17-2.2-1.2-4.7-2.5-7.3-3.9-.4-3.3-3.1-15.3-19.6-26.3-19.4-12.9-33.2-15.7-37.6-25.7,0,0,4.1,53.1,56.8,55,.8.4,1.6.8,2.4,1.2,5,2.4,9.3,6.1,12.5,10.5.1.2.3.4.4.6,6.4,9.2,13.7,17.7,21.4,26,2,2,3.8,4.1,5.9,6.1l6.1,5.9c3.1,2.7,6.1,5.4,9.2,8.1-3.5-.2-7.6-.6-12.4-1.2-1.8-2.9-9.1-12.9-28.9-16.8-23.2-4.6-37-2-45.2-9.5,0,0,25.7,47.3,74.9,29.3,9.4.8,18.5,4,26,9.5,5.5,4,11.3,7.8,17.2,11.4,9.8,5.9,20,11.2,30.6,15.8,10.6,4.5,21.5,8.4,32.6,11.7,4.4,1.3,9.1,1.3,9-3.6,0-2.8,3.3-1.9-30.5-14.6-2.4-8.7-3.6-17.9-3.6-27.4,0-57.6,46.5-104.5,103.7-104.5s52.3,10.8,70.9,28.3v.9s0,0,0,0v58c0,.5-.1.9-.1,1.4v52.4c0,.9,0,1.3.1,1.4v1c0,4,3.2,7.3,7.2,7.3s6.5-2.5,7.1-5.9v-84.3h0v-126.7c0-.6,0-1.7,0-1.8,0-5.8,9.3-10.5,14.8-10.5s.3,0,.5,0h.2c0,0,119.6,0,119.6,0,1,.3,1.6.8,1.9,1.7v192c0,.2,0,.3,0,.5v29.9c0,3.1,2,5.6,4.5,5.6s4.5-2.5,4.5-5.6v-8.5h0v-192.6h0v-23.2c.7,0,2.2,0,3.7,1.1,1.4,1.1,2.8,3.2,3.3,7.2.2,1.6.3,3.6.2,5.9v201.5h0v6.4c0,4.1,2.8,7.5,6.3,7.5s6.3-3.3,6.3-7.5v-40c0-.3,0-.5,0-.8,0-9.6,0-19.3-.1-28.9,0-.9.1-1.6.4-2.3v-2.4c11.5-4.7,23-9.5,34.4-14.4,4.3-1.8,7.7.8,11.3,2.2,5.9,2.2,12,3.5,18.2,4.5,10.6,1.7,21.1,4.1,31.8,4.6,7.3.4,11,6.1,15.9,10,7,5.6,13.7,11.7,20.4,17.7h0s9.9,9.5,9.9,9.5c0,0,0,.2,0,.2,8.5,8.2,8.1,14.6,6.6,18.3,0,0,0,0,0,0-.9,2.2-2.2,3.4-2.2,3.4,0,0,0,0,0,0-10.2,4.1-17.1,7.8-27.7,10.6,0,0-8.6,3-8.7,5.8-.1,4.9,4.6,4.9,9,3.6,11.1-3.2,53.4-18.5,63.2-24.4,5.9-3.5,11.6-7.3,17.2-11.4,7.5-5.5,16.6-8.7,26-9.5,49.3,18,75-29.3,75-29.3-8.3,7.5-22,4.9-45.2,9.5-19.7,3.9-27.1,13.9-28.9,16.8-4.7.6-8.9,1-12.4,1.2,3.1-2.6,6.2-5.4,9.2-8.1l6.1-5.9c2.1-1.9,3.9-4,5.9-6.1,7.7-8.2,14.9-16.8,21.4-26,.1-.2.3-.4.4-.6,3.1-4.5,7.4-8.1,12.5-10.5.8-.4,1.6-.8,2.4-1.2h0c52.7-1.9,56.9-55,56.9-55-4.5,10-18.2,12.8-37.7,25.7Z"/>
</svg>