<?xml version="1.0" encoding="UTF-8"?>
<svg id="Capa_2" data-name="Capa 2" xmlns="http://www.w3.org/2000/svg" viewBox="0 0 1229.56 371.1">
  <defs>
    <style>
      .cls-1 {
        fill: #fff;
      }
    </style>
  </defs>
  <g id="Capa_1-2" data-name="Capa 1">
    <g>
      <g>
        <path class="cls-1" d="M183.51,2.04h-25.51v80.04h25.51c19.22,0,40.39-13.34,40.39-40.01S202.73,2.04,183.51,2.04ZM181.35,74.84h-15.53V9.27h15.53c23.12,0,34.31,16.28,34.31,32.79s-11.18,32.77-34.31,32.77Z"/>
        <rect class="cls-1" x="244.2" y="2.04" width="7.82" height="80.04"/>
        <path class="cls-1" d="M298.15,37.66c-8.58-2.94-16.72-5.55-16.72-15.71s8.79-15.04,16.39-15.04,12.6,3.17,15.85,8.03l6.19-5.2c-3.69-5.2-11.4-9.73-21.72-9.73-11.28,0-24.53,6.56-24.53,22.05,0,14.47,10.42,19.1,20.63,22.39,9.77,3.16,18.78,5.98,18.78,17.18,0,10.28-9.12,15.48-17.04,15.48s-14.22-4.4-17.59-10.06l-6.74,5.2c5.54,7.92,14.88,11.88,24.22,11.88,12.16,0,25.08-7.02,25.08-23.07s-11.94-19.68-22.8-23.4Z"/>
        <polygon class="cls-1" points="330.83 9.27 356.56 9.27 356.56 82.08 364.38 82.08 364.38 9.27 390.11 9.27 390.11 2.04 330.83 2.04 330.83 9.27"/>
        <path class="cls-1" d="M454.49,23.41c0-15.61-11.08-21.37-26.27-21.37h-22.59v80.04h7.82v-37.42h13.03l21.28,37.42h9.56l-22.47-38.09c11.17-1.24,19.64-8.7,19.64-20.58ZM413.45,37.66V9.05h13.9c11.62,0,19.32,3.85,19.32,14.36,0,9.5-7.16,14.25-19.65,14.25h-13.57Z"/>
        <rect class="cls-1" x="474.68" y="2.04" width="7.82" height="80.04"/>
        <path class="cls-1" d="M541.01,39.92v-.23c8.14-1.92,13.57-8.82,13.57-17.18,0-16.05-13.02-20.47-24.75-20.47h-22.92v80.04h22.81c17.69,0,28.66-8.82,28.66-22.15,0-11.66-7.39-18.89-17.38-20.01ZM514.74,9.05h13.57c10.1,0,18.46,3.85,18.46,14.02s-8.8,14.03-16.29,14.03h-15.74V9.05ZM529.29,75.07h-14.55v-31.32h15.96c12.49,0,19.76,5.2,19.76,15.72,0,11.19-9.88,15.6-21.17,15.6Z"/>
        <path class="cls-1" d="M629.27,51.33c0,12.88-5.32,25.54-20.95,25.54s-20.96-12.66-20.96-25.54V2.04h-7.81v50.2c0,13.34,5.75,31.89,28.77,31.89s28.76-18.55,28.76-31.89V2.04h-7.82v49.3Z"/>
        <path class="cls-1" d="M697.13,76.99c-19.76,0-31.92-16.27-31.92-34.92s12.04-34.94,31.92-34.94c9.78,0,17.48,5.32,20.73,10.52l6.52-4.97c-5.32-7.8-16.07-12.67-27.36-12.67-22.9,0-40.06,17.75-40.06,42.07s16.83,42.05,40.06,42.05c13.79,0,23.67-6.9,28.76-14.93l-6.08-4.07c-5.31,8.26-13.79,11.88-22.58,11.88Z"/>
        <rect class="cls-1" x="743.26" y="2.04" width="7.81" height="80.04"/>
        <path class="cls-1" d="M811.44,0c-22.91,0-40.07,17.75-40.07,42.07s17.16,42.05,40.07,42.05,40.06-17.76,40.06-42.05S834.35,0,811.44,0ZM811.44,76.87c-19.76,0-31.81-16.16-31.81-34.8s12.05-34.94,31.81-34.94,31.81,16.28,31.81,34.94-12.04,34.8-31.81,34.8Z"/>
        <polygon class="cls-1" points="926.51 70.21 926.3 70.21 881.57 2.04 871.8 2.04 871.8 82.08 879.62 82.08 879.62 13.24 879.84 13.24 924.56 82.08 934.33 82.08 934.33 2.04 926.51 2.04 926.51 70.21"/>
        <polygon class="cls-1" points="966.57 43.98 1003.81 43.98 1003.81 36.86 966.57 36.86 966.57 9.27 1006.42 9.27 1006.42 2.04 958.76 2.04 958.76 82.08 1007.72 82.08 1007.72 74.84 966.57 74.84 966.57 43.98"/>
        <path class="cls-1" d="M1048.76,37.66c-8.58-2.94-16.73-5.55-16.73-15.71s8.79-15.04,16.4-15.04,12.59,3.17,15.85,8.03l6.2-5.2c-3.69-5.2-11.41-9.73-21.71-9.73-11.29,0-24.55,6.56-24.55,22.05,0,14.47,10.43,19.1,20.64,22.39,9.77,3.16,18.78,5.98,18.78,17.18,0,10.28-9.12,15.48-17.05,15.48s-14.22-4.4-17.58-10.06l-6.73,5.2c5.54,7.92,14.87,11.88,24.21,11.88,12.16,0,25.08-7.02,25.08-23.07s-11.95-19.68-22.79-23.4Z"/>
      </g>
      <g>
        <rect class="cls-1" x="34.61" y="324.16" width="10.67" height="45.72"/>
        <polygon class="cls-1" points="88.06 353.99 87.88 353.99 70.27 324.16 58.17 324.16 58.17 369.88 68.47 369.88 68.22 339.99 68.4 339.99 86.08 369.88 98.11 369.88 98.11 324.16 87.82 324.16 88.06 353.99"/>
        <path class="cls-1" d="M126.38,332.1c2.72,0,6.01,1.55,7.81,3.94l6.76-7.42c-3.85-3.68-9.43-5.63-14.39-5.63-8.18,0-16.99,4.2-16.99,14.33,0,8.28,5.64,11.24,11.23,13.12,5.76,1.93,9.12,3.03,9.12,6.51,0,3.69-2.86,4.98-6.08,4.98-3.48,0-7.39-2.07-9.49-4.85l-6.95,7.36c3.85,4.2,10.18,6.6,16.44,6.6,8.68,0,16.8-4.72,16.8-15.25,0-9.11-7.69-11.75-13.64-13.75-4.16-1.35-6.76-2.33-6.76-5.37,0-3.61,3.41-4.58,6.14-4.58Z"/>
        <path class="cls-1" d="M178.09,351.74c0,4.9-2.23,9.42-8.25,9.42s-8.24-4.52-8.24-9.42v-27.58h-10.55v28.47c0,10.98,7.2,18.47,18.73,18.47s18.91-7.49,18.91-18.47v-28.47h-10.6v27.58Z"/>
        <polygon class="cls-1" points="226.39 353.48 226.14 353.48 216.16 324.16 201.09 324.16 201.09 369.88 211.07 369.88 210.82 337.53 211.01 337.53 222.11 369.88 229.55 369.88 240.96 337.53 241.15 337.53 240.9 369.88 251.25 369.88 251.25 324.16 235.94 324.16 226.39 353.48"/>
        <path class="cls-1" d="M285.97,322.93c-13.71,0-23.87,9.23-23.87,23.9s10.16,24.27,23.87,24.27,23.94-9.81,23.94-24.27-10.17-23.9-23.94-23.9ZM285.97,361.03c-7.38,0-12.53-5.93-12.53-14.2s5.09-13.95,12.53-13.95,12.59,5.94,12.59,13.95-5.21,14.2-12.59,14.2Z"/>
        <path class="cls-1" d="M336.13,332.1c2.72,0,6.02,1.55,7.81,3.94l6.76-7.42c-3.85-3.68-9.42-5.63-14.39-5.63-8.19,0-16.99,4.2-16.99,14.33,0,8.28,5.65,11.24,11.22,13.12,5.77,1.93,9.11,3.03,9.11,6.51,0,3.69-2.84,4.98-6.08,4.98-3.47,0-7.38-2.07-9.49-4.85l-6.95,7.36c3.85,4.2,10.17,6.6,16.43,6.6,8.69,0,16.81-4.72,16.81-15.25,0-9.11-7.69-11.75-13.64-13.75-4.16-1.35-6.76-2.33-6.76-5.37,0-3.61,3.41-4.58,6.14-4.58Z"/>
        <path class="cls-1" d="M396.71,324.16h-16.13v45.72h10.61v-17.24h5.27c9.18,0,17.43-3.8,17.43-14.4s-7.57-14.08-17.17-14.08ZM391.19,333.08h4.65c3.78,0,7.43.84,7.43,5.22s-3.65,5.56-7.63,5.56h-4.46"/>
        <path class="cls-1" d="M433.4,324.16l-18.41,45.72h11.53l3.23-8.98h16.99l3.41,8.98h11.78l-18.23-45.72h-10.29ZM438.37,336.37l5.46,15.69h-11.03"/>
        <path class="cls-1" d="M502.97,337.99c0-10.47-8.37-13.83-16.8-13.83h-16.74v45.72h10.42v-18.14h3.6l9.48,18.14h12.41l-11.48-19.56c5.64-1.82,9.11-6.2,9.11-12.33ZM484.8,343.73h-5.02v-10.65h5.64c3.16,0,7.07.84,7.07,5.1,0,4.65-4.28,5.55-7.69,5.55Z"/>
        <path class="cls-1" d="M527.4,324.16l-18.42,45.72h11.54l3.23-8.98h16.99l3.4,8.98h11.79l-18.23-45.72h-10.29ZM526.78,352.06l5.58-15.69,5.45,15.69h-11.03Z"/>
        <path class="cls-1" d="M597.77,324.16h-16.12v45.72h10.61v-17.24h5.27c9.18,0,17.43-3.8,17.43-14.4s-7.57-14.08-17.18-14.08ZM596.71,343.86h-4.46v-10.78h4.65c3.78,0,7.44.84,7.44,5.22s-3.66,5.56-7.63,5.56Z"/>
        <polygon class="cls-1" points="635.41 350.95 653.64 350.95 653.64 342.12 635.41 342.12 635.41 333.53 654.69 333.53 654.69 324.16 625.17 324.16 625.17 369.88 655.81 369.88 655.81 360.45 635.41 360.45 635.41 350.95"/>
        <path class="cls-1" d="M700.2,337.99c0-10.47-8.37-13.83-16.81-13.83h-16.75v45.72h10.42v-18.14h3.6l9.49,18.14h12.4l-11.48-19.56c5.64-1.82,9.12-6.2,9.12-12.33ZM682.03,343.73h-5.02v-10.65h5.64c3.17,0,7.07.84,7.07,5.1,0,4.65-4.27,5.55-7.68,5.55Z"/>
        <polygon class="cls-1" points="711.6 369.88 722.08 369.88 722.08 352.12 739.07 352.12 739.07 343.02 722.08 343.02 722.08 333.59 740.5 333.59 740.5 324.16 711.6 324.16 711.6 369.88"/>
        <path class="cls-1" d="M777.77,351.74c0,4.9-2.23,9.42-8.25,9.42s-8.25-4.52-8.25-9.42v-27.58h-10.55v28.47c0,10.98,7.2,18.47,18.73,18.47s18.92-7.49,18.92-18.47v-28.47h-10.61v27.58Z"/>
        <polygon class="cls-1" points="826.06 353.48 825.81 353.48 815.83 324.16 800.75 324.16 800.75 369.88 810.74 369.88 810.49 337.53 810.67 337.53 821.78 369.88 829.23 369.88 840.63 337.53 840.82 337.53 840.56 369.88 850.92 369.88 850.92 324.16 835.61 324.16 826.06 353.48"/>
        <polygon class="cls-1" points="874.04 350.95 892.27 350.95 892.27 342.12 874.04 342.12 874.04 333.53 893.33 333.53 893.33 324.16 863.8 324.16 863.8 369.88 894.44 369.88 894.44 360.45 874.04 360.45 874.04 350.95"/>
        <path class="cls-1" d="M938.84,337.99c0-10.47-8.37-13.83-16.8-13.83h-16.75v45.72h10.42v-18.14h3.59l9.5,18.14h12.4l-11.47-19.56c5.65-1.82,9.12-6.2,9.12-12.33ZM920.67,343.73h-5.03v-10.65h5.66c3.16,0,7.07.84,7.07,5.1,0,4.65-4.28,5.55-7.69,5.55Z"/>
        <rect class="cls-1" x="950.24" y="324.16" width="10.67" height="45.72"/>
        <path class="cls-1" d="M986.82,324.16l-18.42,45.72h11.53l3.24-8.98h16.98l3.41,8.98h11.78l-18.23-45.72h-10.3ZM986.2,352.06l5.58-15.69,5.46,15.69h-11.04Z"/>
        <polygon class="cls-1" points="1041.07 369.88 1051.55 369.88 1051.55 352.12 1068.55 352.12 1068.55 343.02 1051.55 343.02 1051.55 333.59 1069.97 333.59 1069.97 324.16 1041.07 324.16 1041.07 369.88"/>
        <rect class="cls-1" x="1080.63" y="324.16" width="10.67" height="45.72"/>
        <polygon class="cls-1" points="1134.08 353.99 1133.88 353.99 1116.28 324.16 1104.19 324.16 1104.19 369.88 1114.49 369.88 1114.24 339.99 1114.42 339.99 1132.1 369.88 1144.12 369.88 1144.12 324.16 1133.83 324.16 1134.08 353.99"/>
        <path class="cls-1" d="M1170.03,324.16l-18.41,45.72h11.53l3.23-8.98h16.99l3.41,8.98h11.8l-18.23-45.72h-10.3ZM1169.41,352.06l5.59-15.69,5.46,15.69h-11.04Z"/>
        <path class="cls-1" d="M1219.06,339.77c-5.81,0-10.52,4.9-10.52,10.95s4.71,10.94,10.52,10.94,10.51-4.89,10.51-10.94-4.71-10.95-10.51-10.95Z"/>
        <path class="cls-1" d="M10.51,336.61c-5.8,0-10.51,4.89-10.51,10.95s4.71,10.94,10.51,10.94,10.52-4.9,10.52-10.94-4.71-10.95-10.52-10.95Z"/>
      </g>
      <g>
        <polygon class="cls-1" points="145.89 114.93 2.24 114.93 2.24 163.76 21.87 163.76 26.55 134.42 30.54 131.44 53.13 131.44 53.13 258.45 48.68 263.08 33.05 264.04 33.05 278.17 114.86 278.17 114.86 264.04 99.46 263.08 95.01 258.45 95.01 131.44 117.14 131.44 121.37 134.42 126.27 163.76 145.89 163.76 145.89 114.93"/>
        <polygon class="cls-1" points="169.19 129.06 186.08 130.02 189.73 133.58 189.73 258.45 186.08 263.08 169.19 264.04 169.19 278.17 252.6 278.17 252.6 264.04 235.37 263.08 231.6 258.45 231.6 133.58 235.37 130.02 252.6 129.06 252.6 114.93 169.19 114.93 169.19 129.06"/>
        <polygon class="cls-1" points="430.95 132.87 430.95 258.45 428.9 263.08 414.4 264.04 414.4 278.17 490.05 278.17 490.05 264.04 472.59 263.08 469.74 258.45 469.74 133.35 472.59 130.02 490.05 128.24 490.05 114.93 414.4 114.93 414.4 121.7 382.34 223.88 350.05 121.94 350.05 114.93 274.63 114.93 274.63 128.24 290.94 130.02 293.8 132.87 293.8 258.45 290.94 263.08 274.63 264.04 274.63 278.17 333.05 278.17 333.05 264.04 317.65 263.08 314.79 258.45 314.79 132.87 315.25 132.87 361.12 278.17 384.74 278.17 430.5 132.87 430.95 132.87"/>
        <path class="cls-1" d="M540.95,259.4l11.75-35.99h49.75l12.33,36.23-1.83,3.21-15.86,1.19v14.13h75.65v-14.13l-14.26-1.9-54.19-148.39h-33.66l-53.51,149.34-15.18.95v14.13h56.36v-14.13l-14.95-1.67-2.4-2.96ZM576.79,153.3l18.82,53.83h-37.31l18.49-53.83Z"/>
        <path class="cls-1" d="M825.19,279.6c4.26,0,9.03-.12,14.32-.35,5.29-.24,11.09-.6,17.4-1.07v-14.38h-2.74c-7.91,0-13.75-1.2-17.51-3.62-3.78-2.41-7.06-7.26-9.88-14.55-.61-1.74-1.52-4.23-2.74-7.49-5.25-14.72-10.88-24.91-16.89-30.53-2.66-2.54-5.9-4.7-9.7-6.48-3.81-1.78-8.22-3.19-13.24-4.22,14.6-2.05,25.58-6.56,32.91-13.54,7.34-6.97,11.02-16.31,11.02-28.04,0-13.14-4.72-23.17-14.15-30.06-9.43-6.89-23.16-10.34-41.19-10.34h-85.81v14.13l14.95.96,3.77,3.56v124.87l-3.77,4.64-14.95.95v14.13h78.5v-14.13l-15.41-.95-3.65-4.64v-51.32h2.28c7.61,0,13.62,1.8,18.03,5.4,4.41,3.62,8.07,9.77,10.96,18.48.83,2.53,1.94,6.38,3.31,11.52,3.12,12.12,6.54,20.28,10.27,24.48,3.65,4.11,8.33,7.24,14.03,9.39,5.71,2.13,12.32,3.2,19.85,3.2ZM777.04,183.3c-5.63,5.19-14.04,7.78-25.22,7.78-.68,0-1.6-.04-2.74-.12-1.14-.08-2.01-.12-2.62-.12v-59.4h10.72c8.67,0,15.56,2.58,20.66,7.72,5.1,5.16,7.64,12.16,7.64,21.03,0,10.22-2.81,17.92-8.44,23.11Z"/>
        <path class="cls-1" d="M867.89,278.17h56.37v-14.13l-14.94-1.67-2.4-2.96,11.76-35.99h49.75l12.32,36.23-1.82,3.21-15.85,1.19v14.13h75.64v-14.13l-14.26-1.9-54.2-148.39h-33.66l-53.51,149.34-15.18.95v14.13ZM942.74,153.3l18.82,53.83h-37.31l18.49-53.83Z"/>
        <polygon class="cls-1" points="1168.11 127.76 1183.39 130.02 1187.5 134.65 1187.5 229.7 1120.53 121.47 1120.53 114.93 1054.58 114.93 1054.58 129.06 1070.21 130.02 1073.28 133.58 1073.28 258.45 1068.83 263.08 1054.58 264.51 1054.58 278.17 1113.45 278.17 1113.45 264.51 1097.82 263.08 1094.51 258.45 1094.51 154.13 1171.87 278.17 1209.07 278.17 1209.07 134.65 1213.52 130.02 1227.32 127.76 1227.32 114.93 1168.11 114.93 1168.11 127.76"/>
      </g>
    </g>
  </g>
</svg>